<svg width="512" height="512" viewBox="0 0 512 512" fill="none" xmlns="http://www.w3.org/2000/svg">
<g clip-path="url(#clip0_501_31804)">
<path d="M481.561 300.539C495.826 288.485 512 274.825 512 255.99C512 237.154 495.82 223.502 481.568 211.448C472.528 203.811 463.184 195.943 461.053 189.362C458.741 182.236 461.728 169.933 464.593 158.047C469.103 139.407 473.768 120.139 463.111 105.463C452.324 90.6785 431.56 89.1075 413.222 87.7262C401.087 86.8097 388.608 85.8657 382.696 81.564C376.932 77.3637 372.226 65.8689 367.689 54.7462C360.678 37.5959 352.736 18.1594 335.127 12.4432C318.152 6.92816 301.419 17.2169 285.279 27.1798C274.708 33.6794 263.774 40.4135 256 40.4135C248.226 40.4135 237.292 33.6721 226.715 27.1798C210.535 17.2154 193.844 6.95422 176.874 12.4432C159.258 18.1594 151.323 37.5901 144.318 54.7404C139.768 65.8645 135.075 77.3651 129.305 81.5654C123.394 85.8671 110.881 86.8111 98.7794 87.7277C80.4419 89.0756 59.6777 90.6799 48.8909 105.472C38.233 120.114 42.8981 139.383 47.4083 158.056C50.2809 169.942 53.2606 182.244 50.9469 189.371C48.8171 195.924 39.4869 203.825 30.439 211.457C16.1657 223.508 0 237.166 0 255.996C0 274.825 16.1802 288.491 30.439 300.544C39.4724 308.176 48.8171 316.05 50.9469 322.623C53.2592 329.756 50.2722 342.052 47.4083 353.938C42.8981 372.578 38.233 391.847 48.8909 406.523C59.6777 421.314 80.4419 422.885 98.7794 424.267C110.914 425.183 123.399 426.134 129.313 430.429C135.077 434.629 139.775 446.124 144.32 457.254C151.331 474.404 159.266 493.833 176.881 499.557C180.049 500.586 183.359 501.108 186.691 501.1C200.282 501.1 213.658 492.849 226.722 484.826C237.3 478.313 248.235 471.579 256.007 471.579C263.779 471.579 274.715 478.321 285.292 484.826C301.472 494.77 318.178 505.052 335.126 499.557C352.742 493.833 360.684 474.404 367.687 457.254C372.231 446.13 376.931 434.629 382.701 430.429C388.606 426.134 401.119 425.19 413.213 424.274C431.557 422.926 452.348 421.322 463.102 406.53C473.76 391.88 469.095 372.619 464.592 353.945C461.713 342.054 458.739 329.757 461.052 322.63C463.183 316.07 472.528 308.169 481.561 300.539V300.539ZM438.644 315.336C434.269 328.819 438.045 344.405 441.692 359.494C444.786 372.303 448.299 386.784 444.058 392.608C439.716 398.568 424.71 399.7 411.469 400.698C396.085 401.863 380.174 403.058 368.849 411.302C357.651 419.447 351.664 434.109 345.873 448.28C340.81 460.678 335.087 474.727 327.866 477.074C321.293 479.178 308.747 471.492 297.691 464.683C284.261 456.452 270.454 447.924 256 447.924C241.546 447.924 227.685 456.431 214.344 464.67C203.288 471.479 190.748 479.158 184.161 477.061C176.961 474.715 171.225 460.665 166.154 448.267C160.37 434.109 154.377 419.434 143.185 411.289C131.859 403.045 115.941 401.85 100.55 400.678C87.3165 399.673 72.3091 398.548 67.9683 392.588C63.7347 386.756 67.2473 372.263 70.3414 359.466C73.9886 344.378 77.7575 328.785 73.3892 315.316C69.1831 302.366 57.209 292.267 45.6679 282.498C35.3256 273.734 23.5963 263.85 23.5963 255.97C23.5963 248.089 35.3198 238.185 45.6621 229.449C57.2235 219.68 69.1831 209.581 73.3907 196.623C77.7662 183.141 73.9901 167.56 70.3428 152.479C67.2487 139.669 63.7361 125.182 67.9698 119.357C72.312 113.397 87.3179 112.265 100.552 111.267C115.943 110.1 131.859 108.907 143.186 100.656C154.377 92.5115 160.371 77.8559 166.156 63.6854C171.225 51.2872 176.942 37.231 184.169 34.8913C184.984 34.6408 185.831 34.5177 186.684 34.5278C193.641 34.5278 204.569 41.2692 214.324 47.2823C227.692 55.5136 241.52 64.0214 255.974 64.0214C270.428 64.0214 284.261 55.5599 297.65 47.2953C308.706 40.4801 321.198 32.7875 327.839 34.9043C335.032 37.2441 340.775 51.3002 345.846 63.697C351.637 77.8545 357.623 92.5245 368.815 100.667C380.141 108.919 396.059 110.106 411.45 111.279C424.684 112.284 439.691 113.416 444.032 119.368C448.265 125.2 444.76 139.694 441.659 152.496C438.011 167.577 434.242 183.171 438.611 196.641C442.817 209.598 454.791 219.697 466.339 229.466C476.682 238.23 488.405 248.106 488.405 255.987C488.405 263.868 476.682 273.771 466.334 282.515C454.769 292.286 442.817 302.385 438.644 315.336V315.336Z" fill="black"/>
<path d="M310.067 181.817L234.642 257.242L201.932 224.532C186.785 209.392 162.235 209.398 147.096 224.545C131.957 239.691 131.962 264.241 147.109 279.381L207.231 339.503C222.371 354.639 246.913 354.639 262.054 339.503L364.89 236.632C380.141 221.607 380.325 197.062 365.298 181.812C350.272 166.561 325.729 166.377 310.478 181.403C310.341 181.542 310.203 181.68 310.067 181.817V181.817ZM348.205 219.949L245.368 322.785C239.371 328.529 229.914 328.529 223.916 322.785L163.788 262.657C157.868 256.734 157.871 247.132 163.796 241.213C169.719 235.292 179.321 235.295 185.24 241.22L226.284 282.269C230.891 286.872 238.356 286.872 242.962 282.269L326.734 198.484C332.553 192.458 342.155 192.288 348.183 198.108C354.211 203.927 354.379 213.529 348.559 219.557C348.438 219.683 348.313 219.807 348.186 219.93L348.205 219.949Z" fill="black"/>
</g>
<defs>
<clipPath id="clip0_501_31804">
<rect width="512" height="512" fill="white"/>
</clipPath>
</defs>
</svg>
